<?xml version="1.0" standalone="no"?>
<!DOCTYPE svg PUBLIC "-//W3C//DTD SVG 20010904//EN"
 "http://www.w3.org/TR/2001/REC-SVG-20010904/DTD/svg10.dtd">
<svg version="1.0" xmlns="http://www.w3.org/2000/svg"
 width="1280.000000pt" height="1280.000000pt" viewBox="0 0 1280.000000 1280.000000"
 preserveAspectRatio="xMidYMid meet">

<g transform="translate(0.000000,1280.000000) scale(0.100000,-0.100000)"
fill="#000000" stroke="none">
<path d="M0 6400 l0 -6400 6400 0 6400 0 0 6400 0 6400 -6400 0 -6400 0 0
-6400z m5176 2096 c391 -85 629 -290 718 -621 26 -95 32 -302 12 -410 -42
-218 -150 -392 -333 -532 l-74 -57 63 -62 c59 -59 67 -64 128 -74 101 -17 536
-24 684 -11 108 9 334 47 399 67 16 5 17 43 17 605 l0 599 -235 0 -235 0 0
230 0 230 1653 -2 1652 -3 3 -227 2 -228 -335 0 -335 0 0 -1760 0 -1760 -255
0 -255 0 0 1760 0 1760 -570 0 -570 0 0 -1760 0 -1760 -260 0 -260 0 0 925 c0
509 -3 925 -7 925 -5 0 -33 -7 -63 -15 -147 -40 -487 -63 -700 -47 -63 5 -116
8 -118 7 -1 -1 9 -27 23 -57 47 -104 67 -226 62 -383 -8 -247 -72 -412 -219
-563 -179 -184 -454 -282 -793 -282 -632 0 -1107 380 -1563 1250 -79 150 -232
483 -232 504 0 8 56 34 143 66 167 62 299 110 302 110 2 0 18 -37 36 -82 53
-135 181 -407 249 -529 278 -506 565 -777 890 -839 79 -15 234 -14 315 3 298
63 431 304 349 634 -44 178 -160 345 -368 527 l-68 60 -86 -13 c-48 -7 -133
-15 -188 -18 l-102 -6 -6 59 c-8 68 -26 327 -26 365 0 26 1 26 98 32 491 29
724 226 692 585 -8 78 -50 178 -96 227 -90 95 -199 137 -373 143 -258 9 -486
-47 -772 -188 -45 -22 -85 -40 -89 -40 -4 0 -10 10 -13 23 -2 12 -37 110 -75
217 -39 107 -68 198 -64 202 17 16 228 104 332 138 122 40 228 64 375 86 120
17 444 12 541 -10z"/>
</g>
</svg>
